<svg width="232" height="64" viewBox="0 0 232 64" fill="none" xmlns="http://www.w3.org/2000/svg">
<rect width="232" height="64" fill="#515151"/>
<g id="pc">
<path d="M-4491.5 -21691C-4491.5 -21692.1 -4490.6 -21693 -4489.5 -21693H50716.5C50717.6 -21693 50718.5 -21692.1 50718.5 -21691V14079C50718.5 14080.1 50717.6 14081 50716.5 14081H-4489.5C-4490.6 14081 -4491.5 14080.1 -4491.5 14079V-21691Z" fill="#888888"/>
<path d="M-4489.5 -21693V-21692H50716.5V-21693V-21694H-4489.5V-21693ZM50718.5 -21691H50717.5V14079H50718.5H50719.5V-21691H50718.5ZM50716.5 14081V14080H-4489.5V14081V14082H50716.5V14081ZM-4491.5 14079H-4490.5V-21691H-4491.5H-4492.5V14079H-4491.5ZM-4489.5 14081V14080C-4490.05 14080 -4490.5 14079.6 -4490.5 14079H-4491.5H-4492.5C-4492.5 14080.7 -4491.16 14082 -4489.5 14082V14081ZM50718.5 14079H50717.5C50717.5 14079.6 50717.1 14080 50716.5 14080V14081V14082C50718.2 14082 50719.5 14080.7 50719.5 14079H50718.5ZM50716.5 -21693V-21692C50717.1 -21692 50717.5 -21691.6 50717.5 -21691H50718.5H50719.5C50719.5 -21692.7 50718.2 -21694 50716.5 -21694V-21693ZM-4489.5 -21693V-21694C-4491.16 -21694 -4492.5 -21692.7 -4492.5 -21691H-4491.5H-4490.5C-4490.5 -21691.6 -4490.05 -21692 -4489.5 -21692V-21693Z" fill="black" fill-opacity="0.1"/>
<g id="&#231;&#165;&#157;&#231;&#166;&#143;&#232;&#169;&#158;&#38;LOGO">
<path d="M-3626.5 -6046C-3626.5 -6047.1 -3625.6 -6048 -3624.5 -6048H1969.5C1970.6 -6048 1971.5 -6047.1 1971.5 -6046V5240C1971.5 5241.1 1970.6 5242 1969.5 5242H-3624.5C-3625.6 5242 -3626.5 5241.1 -3626.5 5240V-6046Z" fill="#6E6E6E"/>
<path d="M-3624.5 -6048V-6047H1969.5V-6048V-6049H-3624.5V-6048ZM1971.5 -6046H1970.5V5240H1971.5H1972.5V-6046H1971.5ZM1969.5 5242V5241H-3624.5V5242V5243H1969.5V5242ZM-3626.5 5240H-3625.5V-6046H-3626.5H-3627.5V5240H-3626.5ZM-3624.5 5242V5241C-3625.05 5241 -3625.5 5240.55 -3625.5 5240H-3626.5H-3627.5C-3627.5 5241.66 -3626.16 5243 -3624.5 5243V5242ZM1971.5 5240H1970.5C1970.5 5240.55 1970.05 5241 1969.5 5241V5242V5243C1971.16 5243 1972.5 5241.66 1972.5 5240H1971.5ZM1969.5 -6048V-6047C1970.05 -6047 1970.5 -6046.55 1970.5 -6046H1971.5H1972.5C1972.5 -6047.66 1971.16 -6049 1969.5 -6049V-6048ZM-3624.5 -6048V-6049C-3626.16 -6049 -3627.5 -6047.66 -3627.5 -6046H-3626.5H-3625.5C-3625.5 -6046.55 -3625.05 -6047 -3624.5 -6047V-6048Z" fill="white" fill-opacity="0.1"/>
<g id="pc&#231;&#165;&#157;&#231;&#166;&#143;&#232;&#169;&#158;0824">
<g id="&#233;&#159;&#191;&#230;&#135;&#137;&#229;&#164;&#165;&#228;&#188;&#180;_04_15">
<mask id="path-5-inside-1_2065_114237" fill="white">
<path d="M-49.5 -40H1006.5V105H-49.5V-40Z"/>
</mask>
<path d="M-49.5 -40H1006.5V105H-49.5V-40Z" fill="white"/>
<path d="M1006.5 105V104H-49.5V105V106H1006.5V105Z" fill="#D9D9D9" mask="url(#path-5-inside-1_2065_114237)"/>
<g id="&#233;&#153;&#184;&#229;&#186;&#156;&#229;&#187;&#186;&#232;&#168;&#173;-27 1" clip-path="url(#clip0_2065_114237)">
<path id="Vector" d="M232 0H0V64H232V0Z" fill="white"/>
<g id="Group">
<g id="Group_2">
<path id="Vector_2" d="M58.219 31.7086C56.1121 26.7109 50.5013 24.6969 45.5949 26.9659C42.815 28.2512 41.592 30.9767 41.6864 34.0713L42.8662 31.8149C44.3513 28.9744 49.0807 27.6892 52.2336 28.4015C55.3266 29.1012 57.5862 31.567 57.8751 34.7269C58.2159 38.4599 56.955 42.6485 54.1413 45.1497C52.4878 46.6199 50.565 47.6989 48.5109 48.3388C40.6208 50.796 32.5969 45.522 31.6005 37.369C30.7914 30.7516 34.947 25.6673 41.2276 23.6729C41.2354 20.7467 42.4388 17.9401 44.9613 16.3613C48.0796 14.4087 52.1493 14.5535 55.0653 16.8162C57.0526 18.3588 58.0766 20.6775 58.2371 23.2094C57.0219 21.3464 55.8689 19.2206 53.7762 18.2337C51.6858 17.2483 49.4175 17.1594 47.1941 17.7237C43.4525 18.6729 41.8273 21.8438 41.5739 25.639C42.3586 24.2058 43.2109 22.93 44.4064 21.8541C47.0328 19.4906 50.6736 19.0239 53.7754 20.7491C56.2813 22.1421 58.0899 24.6371 58.2269 27.594C56.3506 23.0937 51.2631 21.0159 46.7274 22.5097C43.6595 23.5195 41.673 26.2804 41.6274 29.4695C42.6749 27.3114 44.1506 25.65 46.2599 24.6851C49.5749 23.1684 53.459 23.898 55.9114 26.6133C57.1715 28.008 57.9829 29.7174 58.219 31.7086Z" fill="#921E22"/>
<path id="Vector_3" d="M140.021 35.8639L140.128 33.4068L142.083 31.3991C143.15 30.3043 143.967 29.0867 144.605 27.6638L140.227 27.6126L140.214 25.4711L149.021 25.4726C148.473 28.4933 146.772 31.1047 144.666 33.4265L148.523 33.4422C148.676 37.0311 148.065 40.5287 146.34 43.7556C149.086 45.2565 152.261 45.6421 155.346 45.9522L155.351 43.7855H148.883L148.877 41.6715L155.346 41.6707L155.351 39.6874L150.047 39.6819L150.059 37.5592L155.35 37.5584V35.6632L150.195 35.664V33.672L155.347 33.6712L155.35 31.5061L148.329 31.5069L148.332 29.3205L155.347 29.3221L155.348 27.6213L149.777 27.6181L149.763 25.4734L155.343 25.4718L155.368 23.7773L159.797 23.7781L159.818 25.4734L166.131 25.4726L166.134 29.3189L167.997 29.3213L167.997 31.5061L166.135 31.5077L166.132 35.664L159.814 35.6632L159.804 37.5592L166.13 37.5584L166.129 39.6842H159.808L159.802 41.6684L167.099 41.6723L167.101 43.7855L159.814 43.7839L159.8 46.1876L167.596 46.1931L167.553 48.8454L158.869 48.7297L151.751 48.2465C149.733 48.1095 146.285 47.2509 144.621 46.0475L142.12 47.6562L139.23 48.9587L139.222 45.931L142.566 43.6966L141.474 41.7542C140.85 40.6436 140.594 39.393 140.341 38.1393L143.38 38.1039L144.274 40.7082C144.886 39.09 145.078 37.5403 145.195 35.8553L140.021 35.8639ZM162.814 29.3181L162.811 27.6205L159.805 27.6157L159.812 29.3205L162.814 29.3181ZM162.928 33.672L162.927 31.5037H159.812L159.8 33.6642L162.928 33.672Z" fill="#040000"/>
<path id="Vector_4" d="M100.239 46.6649L100.272 48.9528L79.8471 48.9536L79.7881 46.6184L87.978 46.6688L87.9993 43.1798L82.0752 43.1767L82.0595 41.0438L87.9922 41.0446L87.9938 37.4809L91.5237 37.4691V32.6563L89.1019 32.6681C89.1956 34.7003 88.2984 36.346 86.7432 37.5076C85.5925 38.3875 84.323 38.9904 82.9016 39.5406L81.5849 36.6529C82.6899 36.2917 83.6824 35.8879 84.5796 35.2315C85.2092 34.5303 85.4697 33.6669 85.469 32.6642L80.9608 32.6532V30.6029L87.9922 30.6021L87.993 28.0639L82.4373 28.0364L82.4278 25.9153H87.9906L87.9961 23.8359L92.572 23.8477L92.5759 25.9098L98.7873 25.909L98.8014 27.9939L92.5759 28.0191L92.5665 30.599L99.9072 30.6006L99.9482 32.6524L95.4809 32.6571L95.4715 36.427L96.7961 36.4742C97.0802 36.4845 97.4548 36.1413 97.4965 35.8611L97.7452 34.1847L100.686 34.4012L100.342 36.937C100.189 38.0704 99.228 38.9109 98.0506 38.9188L93.4716 38.9495L92.5696 38.8787L92.5767 41.0422H98.7881L98.8038 43.1751H92.572L92.5704 46.6633L100.239 46.6649Z" fill="#040000"/>
<path id="Vector_5" d="M117.929 48.8732L113.662 48.87L113.703 39.4389L112.061 41.4293L111.424 40.8815C111.068 43.6527 110.445 46.2877 109.498 48.9479L106.088 47.9004L107.079 44.8514C107.594 42.4131 107.88 40.0449 107.882 37.5217L107.889 25.5146L119.163 25.5153L119.178 23.7217H123.753L123.764 25.5138L133.799 25.5153L133.801 27.8159H111.611L111.668 37.2903C113.804 34.6623 115.297 31.7613 116.279 28.5998L119.353 29.4356C118.992 30.7775 118.639 32.0124 118.027 33.2795L117.929 48.8732Z" fill="#040000"/>
<path id="Vector_6" d="M80.4344 42.6424C79.3342 44.1204 77.5554 43.5128 75.8208 43.0894L75.7689 48.8419L71.7471 48.838V24.017L77.4531 24.0107L80.4541 25.5966L80.4344 42.6424ZM77.3351 40.733L77.3547 27.092L75.7673 27.0959L75.7689 40.4599C76.2867 40.6921 76.7345 40.8101 77.3351 40.733Z" fill="#040000"/>
<path id="Vector_7" d="M126.445 48.8762L121.574 48.8652L121.594 46.2215L126.972 46.1413C127.496 45.8493 127.715 45.3574 127.714 44.7537L127.705 34.4537L119.021 34.4553L119.008 32.0902L127.687 32.0894L127.72 29.2002H132.364L132.351 32.0808L134.289 32.091L134.29 34.4513L132.349 34.4592L132.368 46.1877C132.049 47.6296 130.917 48.5535 129.49 48.7582L126.445 48.8762Z" fill="#040000"/>
<path id="Vector_8" d="M196.745 47.4255L193.089 45.938C190.775 47.0336 188.456 47.8962 185.96 48.5809L186.037 44.4694C187.452 44.1624 188.638 43.6997 189.829 43.0071C188.321 41.4291 187.346 39.5858 186.747 37.4907L185.922 37.4364L185.948 35.3311H200.038C199.615 38.6539 198.064 41.6069 195.489 43.8303C196.309 44.4985 197.262 45.0353 198.33 45.2352L201.129 45.7594L201.187 48.3975C199.683 48.2747 198.218 48.0245 196.745 47.4255ZM194.92 37.4931L189.992 37.4789C190.487 39.0475 191.304 40.3099 192.39 41.3669C193.603 40.2745 194.449 38.9821 194.92 37.4931Z" fill="#040000"/>
<path id="Vector_9" d="M194.839 27.0935L191.379 27.0699C191.323 30.0607 190.64 32.9523 187.616 34.0266L186.018 34.4484L185.963 31.9134C187.097 31.549 187.863 30.6738 187.907 29.4783L188.078 24.8284L199.135 24.8135V31.6891L201.49 31.7119L201.5 33.8951L196.496 33.8975C195.652 33.8983 194.987 33.0263 194.863 32.2809L194.839 27.0935Z" fill="#040000"/>
<path id="Vector_10" d="M184.738 48.7054L174.113 48.7094V40.0566L184.738 40.0574V48.7054ZM180.679 46.5293L180.677 42.2045L178.175 42.2068L178.186 46.5482L180.679 46.5293Z" fill="#040000"/>
<path id="Vector_11" d="M126.245 43.0431L123.575 44.7707C122.135 42.2262 120.395 40.0303 118.448 37.8479L121.153 36.4375L123.213 38.7278C124.344 40.0665 125.28 41.3486 126.245 43.0431Z" fill="#040000"/>
<path id="Vector_12" d="M185.303 31.3202L173.408 31.3242L173.402 29.1315L185.298 29.1299L185.303 31.3202Z" fill="#040000"/>
<path id="Vector_13" d="M184.381 35.0678L174.392 35.0686L174.387 32.6713L184.377 32.6689L184.381 35.0678Z" fill="#040000"/>
<path id="Vector_14" d="M184.441 27.2656L174.355 27.2703L174.331 24.9344L184.438 24.9336L184.441 27.2656Z" fill="#040000"/>
<path id="Vector_15" d="M184.382 38.4753L174.391 38.4761L174.395 36.2842H184.377L184.382 38.4753Z" fill="#040000"/>
</g>
</g>
</g>
</g>
</g>
</g>
</g>
<defs>
<clipPath id="clip0_2065_114237">
<rect width="232" height="64" fill="white"/>
</clipPath>
</defs>
</svg>
