<svg width="111" height="30" viewBox="0 0 111 30" fill="none" xmlns="http://www.w3.org/2000/svg">
<g id="_&#229;&#156;&#150;&#229;&#177;&#164;_1" clip-path="url(#clip0_0_4)">
<path id="Vector" d="M16.7693 15.7865C13.3339 20.2034 7.89865 25.2976 2.38523 28.3766C2.10035 28.5221 1.83222 28.4829 1.5976 28.2702C1.32389 27.9959 1.02224 27.6096 0.0782044 26.8371C-0.0335162 26.7475 -0.0223441 26.658 0.111721 26.5908C6.0776 23.6294 12.3116 18.1937 15.518 13.4185C15.6297 13.2562 15.7694 13.217 15.9593 13.2954C16.4564 13.5641 17.0541 13.9448 17.5625 14.3086C17.8194 14.5102 17.8027 14.6613 17.5513 14.8964C17.434 14.9972 17.339 15.0924 17.2608 15.1819C17.1044 15.3499 16.948 15.5458 16.7748 15.7809L16.7693 15.7865ZM34.3541 12.5732C34.382 13.1554 34.382 13.9728 34.3429 14.5885C34.3429 14.7957 34.22 14.902 34.0133 14.902C31.2259 14.8517 23.9864 14.8573 17.4228 14.8573C10.5353 14.8573 5.92678 14.7621 0.893765 15.098C0.67591 15.1036 0.569775 15.0028 0.547431 14.7957C0.474813 14.1743 0.452468 13.1219 0.469226 12.5117C0.474812 12.3045 0.580947 12.1982 0.78763 12.2094C5.82623 12.5285 10.5576 12.4501 17.4228 12.4501C24.2881 12.4501 31.2259 12.3829 34.0245 12.2709C34.2312 12.2598 34.3373 12.3661 34.3541 12.5732ZM9.35101 10.7259C7.78134 8.11159 6.18373 5.96193 4.34593 3.92984C4.19511 3.77309 4.20628 3.62194 4.37386 3.48199C4.82074 3.12932 5.36817 2.77664 5.87092 2.49673C6.05526 2.39037 6.21166 2.43516 6.36249 2.57511C8.23381 4.6184 9.94313 6.82403 11.5687 9.33756C11.686 9.5167 11.658 9.66785 11.4849 9.8078C10.9486 10.2165 10.3342 10.5859 9.7979 10.8546C9.62473 10.9498 9.47391 10.9162 9.35101 10.7203V10.7259ZM16.1716 13.6817V2.18324C16.1716 1.80817 16.1492 1.26516 16.1045 0.626983C16.0933 0.419854 16.1883 0.313491 16.395 0.313491C17.0765 0.302295 17.9367 0.313491 18.5121 0.369472C18.7188 0.391864 18.8193 0.503825 18.7914 0.716552C18.7411 1.37152 18.7076 1.86975 18.7076 2.17765V13.6761H16.1716V13.6817ZM18.5121 29.9664C17.8753 29.9944 17.0262 29.9944 16.4453 29.9496C16.2386 29.9384 16.1325 29.8209 16.1325 29.6137C16.2107 23.2767 16.2274 17.4603 16.233 13.8216H18.6518C18.6518 17.4603 18.702 23.2711 18.8249 29.6361C18.8249 29.8433 18.7244 29.9608 18.5121 29.9664ZM19.121 13.2842C22.5955 18.0817 28.8072 22.8233 34.9406 25.4712C35.0914 25.5439 35.097 25.6447 34.9909 25.7399C34.1083 26.5908 33.8849 27.0498 33.5106 27.4025C33.2927 27.604 33.0581 27.6152 32.8068 27.4921C27.014 24.5531 20.9309 19.5932 17.2776 14.6445C17.1491 14.4822 17.1715 14.3198 17.3334 14.1967C17.7189 13.8888 18.2272 13.4969 18.6741 13.1946C18.8473 13.0939 18.9981 13.1163 19.121 13.2842ZM29.8853 4.54003C28.6954 6.38179 26.9079 9.04087 25.4388 10.9218C25.288 11.1233 25.0813 11.1737 24.8355 11.0954C24.4445 10.9386 24.1037 10.7315 22.9809 10.306C22.8413 10.2612 22.8245 10.1773 22.9195 10.0541C24.7014 8.01082 27.0196 4.67998 28.2932 2.22803C28.3882 2.05449 28.5279 2.00411 28.7178 2.04889C29.2652 2.23363 30.0528 2.56951 30.617 2.84381C30.8963 3.00616 30.8907 3.13491 30.6841 3.39802C30.5835 3.53238 30.4941 3.63874 30.4271 3.73391C30.2372 3.98022 30.0696 4.22094 29.8853 4.53443V4.54003Z" fill="#686868"/>
<path id="Vector_2" d="M72.3782 26.2101C72.4117 26.7699 72.4117 27.5481 72.3782 28.1414C72.3782 28.3486 72.2441 28.4549 72.0318 28.4437C69.2277 28.4102 61.9044 28.399 55.2793 28.399C48.6543 28.399 43.6325 28.3262 38.5771 28.6509C38.3648 28.6621 38.2531 28.5557 38.2196 28.3486C38.1637 27.7496 38.1246 26.7475 38.1526 26.1541C38.1638 25.947 38.2699 25.8406 38.4766 25.8518C43.5487 26.1709 48.3471 26.0814 55.2793 26.0814C62.2116 26.0814 69.2277 26.031 72.0598 25.9134C72.272 25.9022 72.3838 26.0086 72.3838 26.2157L72.3782 26.2101ZM71.0543 2.83822C71.0878 3.39802 71.0878 4.17055 71.0543 4.75835C71.0375 4.96548 70.9202 5.07184 70.708 5.07184C68.0714 5.01586 61.329 5.01586 55.2514 5.01586C49.1738 5.01586 44.5262 4.94868 39.8619 5.24538C39.6552 5.25658 39.5156 5.15021 39.5044 4.94309C39.4541 4.34409 39.415 3.36443 39.4206 2.77104C39.4485 2.56391 39.5547 2.46874 39.7614 2.47994C44.448 2.77104 48.8778 2.69826 55.2514 2.69826C61.6251 2.69826 68.0602 2.65348 70.7191 2.54152C70.9314 2.53032 71.0375 2.62549 71.0543 2.84381V2.83822ZM69.1941 13.6537C69.2053 14.2247 69.2053 14.9916 69.1718 15.557C69.1718 15.7641 69.0545 15.8705 68.8478 15.8705C66.4793 15.8257 60.6084 15.8369 55.2738 15.8369C49.9391 15.8369 45.9004 15.7753 41.8058 16.0328C41.5992 16.0328 41.4763 15.9489 41.4539 15.7361C41.4036 15.1316 41.359 14.2023 41.3813 13.6089C41.3813 13.3906 41.5042 13.2954 41.7165 13.3178C45.8445 13.5697 49.7101 13.5249 55.2682 13.5249C60.8263 13.5249 66.4626 13.4465 68.8422 13.357C69.0489 13.3458 69.1606 13.4521 69.1886 13.6593L69.1941 13.6537ZM53.6762 27.5481V3.85147H56.2792V27.5481H53.6762ZM61.2564 17.4995C63.1836 19.2853 65.7978 21.3118 68.2054 22.9744C68.3562 23.0584 68.3674 23.1536 68.2445 23.2655C67.8535 23.6742 67.3843 24.2004 66.943 24.5643C66.7307 24.721 66.5073 24.721 66.295 24.5699C63.9321 22.8569 61.5134 20.808 59.5694 19.0054C59.4242 18.8655 59.4186 18.7143 59.5582 18.5632C59.9046 18.2217 60.3738 17.8018 60.7592 17.4827C60.9324 17.3428 61.0944 17.354 61.2508 17.4939L61.2564 17.4995Z" fill="#686868"/>
<path id="Vector_3" d="M84.9468 2.25042C83.1145 7.03676 80.2768 13.3402 76.685 18.4008C76.5007 18.6471 76.2996 18.6751 76.0761 18.4568C75.8583 18.1713 75.674 17.813 74.836 17.0069C74.7746 16.9453 74.7746 16.867 74.8249 16.7998C78.2324 12.2094 81.4723 5.53088 83.0419 0.246315C83.0978 0.0559806 83.2263 -0.0279903 83.4274 0.0167942C83.958 0.162344 84.6675 0.391864 85.2316 0.626983C85.5277 0.755738 85.5612 0.89569 85.3936 1.19239C85.3098 1.32114 85.2652 1.4387 85.2149 1.53947C85.1311 1.76339 85.0417 1.97612 84.9468 2.25602V2.25042ZM82.7906 29.972C82.2152 30.0112 81.4667 30.0112 80.9137 29.9664C80.707 29.9328 80.6008 29.8209 80.6008 29.6137C80.7237 22.2579 80.707 13.3066 80.5897 9.59507C80.5673 9.16962 80.545 8.76096 80.5059 8.34671C80.4835 8.0892 80.6008 7.97723 80.8578 8.03322C81.4946 8.18996 82.3548 8.51465 82.9525 8.78335C83.2039 8.90091 83.2933 9.10804 83.2263 9.38795C83.1369 9.83579 83.0754 10.2612 83.0643 10.7091C82.9637 14.8013 82.9526 22.4594 83.1034 29.6249C83.1034 29.8321 82.9972 29.9664 82.7906 29.972ZM91.4936 1.92573C90.2423 4.66878 87.9185 8.31872 85.4607 10.7371C85.2652 10.9162 85.0361 10.9498 84.8071 10.7931C84.5557 10.6195 84.3211 10.3788 83.5447 9.93656C83.4385 9.86938 83.4218 9.78541 83.5223 9.69024C86.2707 7.1991 88.6559 3.50998 89.7787 0.341482C89.829 0.167942 89.963 0.0783728 90.1529 0.111961C90.678 0.167942 91.3037 0.291099 91.8734 0.447845C92.1807 0.537414 92.1974 0.682963 92.0131 0.957268C91.9405 1.06363 91.8734 1.16999 91.8287 1.26516C91.7226 1.46669 91.6109 1.66262 91.4936 1.93133V1.92573ZM96.8897 21.1047C94.1693 23.8757 89.8513 27.1394 85.645 29.0091C85.3713 29.1491 85.1311 29.0987 84.9188 28.8916C84.6786 28.6397 84.4384 28.3094 83.6173 27.6208C83.4944 27.5313 83.5 27.4473 83.6452 27.3857C88.3319 25.5943 93.2979 22.2075 95.9624 19.0502C96.0853 18.9102 96.2305 18.8767 96.3814 18.9662C96.8338 19.2013 97.2975 19.5092 97.7499 19.8563C97.9957 20.0578 97.979 20.1754 97.6941 20.3769C97.5824 20.4721 97.493 20.5281 97.4036 20.6009C97.236 20.7464 97.0629 20.9143 96.8841 21.1103L96.8897 21.1047ZM96.8506 4.25453C95.186 9.32637 91.8287 14.331 86.6617 17.354C86.4271 17.4827 86.1813 17.4771 85.9467 17.3204C85.6841 17.1133 85.4272 16.8446 84.6116 16.3519C84.4719 16.268 84.4719 16.1784 84.6116 16.1056C90.1976 13.189 93.8844 7.85968 95.2362 2.38477C95.2809 2.20004 95.3871 2.11607 95.5658 2.13846C96.0797 2.20564 96.7165 2.36238 97.236 2.53032C97.5377 2.64228 97.5377 2.77664 97.3813 3.06774C97.2807 3.23008 97.1913 3.38123 97.1187 3.52118C97.0238 3.7507 96.9511 3.97462 96.8394 4.26012L96.8506 4.25453ZM109.922 18.5184C109.944 19.0054 109.933 19.6604 109.911 20.1698C109.894 20.3769 109.782 20.4833 109.576 20.4833C107.386 20.4385 102.107 20.4609 97.2807 20.4609C92.4544 20.4609 88.7508 20.3993 85.0976 20.6288C84.8909 20.6456 84.7624 20.5393 84.7457 20.3322C84.701 19.7835 84.6619 18.9942 84.6786 18.4736C84.6898 18.2609 84.8015 18.1601 85.0082 18.1769C88.7173 18.4064 92.2812 18.3784 97.2807 18.3784C102.28 18.3784 107.38 18.3057 109.576 18.2161C109.782 18.2105 109.894 18.3113 109.922 18.524V18.5184ZM89.8681 7.507C91.4712 9.47192 93.728 11.6048 95.9792 13.2674C96.1188 13.3682 96.1244 13.4801 96.0071 13.5865C95.6217 13.956 95.2418 14.3982 94.8396 14.7173C94.6497 14.8628 94.443 14.8572 94.2363 14.6949C92.0578 12.9371 89.9239 10.8099 88.304 8.85053C88.1699 8.67699 88.1867 8.53144 88.3375 8.38589C88.6335 8.0724 89.0134 7.72532 89.3821 7.45102C89.5552 7.31666 89.7172 7.32226 89.8569 7.5014L89.8681 7.507ZM95.158 5.33495H88.5721L89.3932 3.35884H95.9792L95.158 5.33495ZM96.0574 19.4365V16.296C96.0574 15.9937 96.0239 15.7138 95.9959 15.3219C95.9736 15.1148 96.0685 15.0028 96.2752 14.9972C96.8841 14.986 97.6215 14.9972 98.1521 15.0532C98.3588 15.0868 98.4594 15.2043 98.4203 15.4115C98.3867 15.7585 98.3532 16.0272 98.3532 16.2904V19.4309H96.0574V19.4365ZM98.1298 29.944C97.5321 29.9888 96.8729 29.9888 96.3478 29.944C96.1412 29.9104 96.0406 29.7985 96.0462 29.5857C96.1132 26.3837 96.13 21.3902 96.1579 19.582H98.2806C98.2918 21.3958 98.3253 26.3893 98.4426 29.6249C98.4482 29.8321 98.3476 29.944 98.1354 29.9496L98.1298 29.944ZM110.095 10.9554C110.117 11.4088 110.117 11.991 110.084 12.4669C110.084 12.674 109.955 12.7804 109.749 12.7692C108.358 12.7468 105.582 12.7692 103.045 12.7692C100.509 12.7692 98.4985 12.7692 96.4707 12.8643C96.2585 12.8867 96.1468 12.786 96.1412 12.5732C96.0741 12.075 96.0685 11.4256 96.0685 10.9218C96.0685 10.7147 96.1803 10.6195 96.387 10.6363C98.4929 10.7707 100.482 10.7763 103.04 10.7763C105.598 10.7763 108.352 10.7427 109.754 10.6643C109.961 10.6531 110.073 10.7427 110.089 10.9554H110.095ZM98.4873 18.9606C101.336 22.3027 105.922 25.5495 110.877 27.4249C111.017 27.4753 111.039 27.5592 110.922 27.6544C110.123 28.3822 109.894 28.746 109.553 29.0539C109.369 29.2107 109.129 29.2275 108.905 29.1211C104.408 27.0554 99.8335 23.6294 96.8785 20.0858C96.7389 19.9179 96.7612 19.7835 96.9288 19.6548C97.2751 19.3973 97.6661 19.123 98.0404 18.8879C98.2136 18.7759 98.3644 18.8039 98.4873 18.9606ZM109.765 4.27692C109.777 4.71916 109.777 5.30136 109.754 5.7548C109.743 5.96193 109.62 6.0683 109.414 6.0683C108.146 6.03471 105.66 6.0571 103.42 6.0571C101.331 6.0571 99.3922 6.0571 97.5712 6.14107C97.3645 6.16346 97.2416 6.07389 97.2193 5.84997C97.1857 5.34615 97.1522 4.73036 97.1634 4.24893C97.1746 4.0362 97.2863 3.93544 97.493 3.95223C99.3699 4.09218 101.157 4.08658 103.42 4.08658C105.682 4.08658 108.14 4.053 109.436 3.98022C109.643 3.96902 109.754 4.05859 109.765 4.27132V4.27692ZM99.3978 11.6776V5.25658H101.375V11.6776H99.3978ZM106.135 16.867C105.677 16.9061 105.129 16.9061 104.665 16.867C104.453 16.8446 104.347 16.727 104.347 16.5199C104.364 12.6348 104.358 8.21235 104.358 4.98787C104.358 3.49319 104.341 2.04889 104.28 0.766934C104.269 0.559806 104.358 0.453443 104.57 0.447845C105.112 0.447845 105.721 0.447845 106.274 0.487031C106.47 0.52062 106.576 0.626983 106.57 0.834111C106.481 2.13286 106.459 3.54917 106.447 5.01026C106.447 8.22915 106.436 12.6908 106.447 16.5143C106.447 16.7214 106.341 16.839 106.135 16.8614V16.867Z" fill="#686868"/>
</g>
<defs>
<clipPath id="clip0_0_4">
<rect width="111" height="30" fill="white"/>
</clipPath>
</defs>
</svg>
