<svg width="364.789" height="28" viewBox="0 316.102 364.789 28" fill="none" xmlns="http://www.w3.org/2000/svg">
<path d="M225.056 316.97C230.886 316.97 234.072 319.68 234.072 323.901C234.072 326.646 232.687 328.718 229.587 329.709C233.099 330.639 235.007 332.748 235.007 336.187C235.007 341.137 230.83 344.102 224.796 344.102C221.339 344.102 218.822 343.515 216.643 342.287H216.653C216.388 342.149 216.327 342.028 216.327 341.834C216.327 340.966 216.82 339.909 217.113 339.909C217.755 339.91 219.415 341.635 224.868 341.635C229.243 341.635 232.086 339.815 232.086 336.192C232.086 332.967 229.973 331.175 225.217 331.175C223.989 331.175 222.722 331.197 221.538 331.197C221.317 331.197 221.206 331.048 221.206 330.826C221.206 329.333 221.377 328.891 221.792 328.891H225.194C229.426 328.891 231.361 327.303 231.361 324.294C231.361 321.285 229.354 319.426 225.006 319.426C220.659 319.426 218.359 320.908 217.821 320.908C217.512 320.908 217.002 319.924 217.002 319.094C217.002 318.939 217.08 318.74 217.301 318.618C219.74 317.518 221.743 316.97 225.056 316.97ZM24.8193 340.174C26.1413 340.174 26.9824 340.783 26.9824 341.961C26.9824 343.139 26.2022 344.096 25.002 344.096C23.6745 344.096 22.8839 343.41 22.8838 342.326V342.321C22.8838 340.96 23.6191 340.174 24.8193 340.174ZM40.916 316.965C46.1651 316.965 50.6454 320.588 50.6455 329.83C50.6455 339.659 46.9119 344.096 40.4902 344.096C35.1317 344.096 31.0028 340.67 30.75 332.028L30.7383 331.18C30.7384 320.372 35.6668 316.965 40.916 316.965ZM63.749 316.965C68.9982 316.965 73.4794 320.588 73.4795 329.83C73.4795 339.66 69.7452 344.096 63.3232 344.096C57.9648 344.096 53.8368 340.67 53.584 332.028L53.5713 331.18C53.5714 320.372 58.4999 316.965 63.749 316.965ZM210.314 340.174C211.636 340.174 212.478 340.783 212.478 341.961C212.477 343.139 211.697 344.096 210.497 344.096C209.17 344.096 208.379 343.41 208.379 342.326V342.321C208.379 340.96 209.114 340.174 210.314 340.174ZM249.245 316.965C254.494 316.965 258.974 320.588 258.975 329.83C258.975 339.66 255.24 344.096 248.818 344.096C243.46 344.096 239.332 340.67 239.079 332.028L239.067 331.18C239.068 320.372 243.996 316.965 249.245 316.965ZM193.25 317.198C194.461 317.198 195.602 317.43 195.602 317.823C195.597 318.243 189.579 330.572 187.623 334.603C191.285 334.6 194.547 334.574 197.283 334.546C197.261 330.117 197.111 328.915 197.111 327.646C197.111 327.054 197.975 326.932 199.49 326.932C199.684 326.932 199.788 327.087 199.788 327.297C199.788 329.255 199.777 331.999 199.773 334.521C201.962 334.496 203.672 334.477 204.806 334.477C205.06 334.477 205.165 334.61 205.165 334.853C205.165 336.269 205.021 337.126 204.463 337.126H199.779C199.795 339.202 199.833 341.264 199.833 343.089C199.833 343.559 198.986 343.797 197.637 343.797C197.385 343.797 197.261 343.679 197.233 343.479L197.228 343.388C197.228 341.88 197.267 339.428 197.282 337.126H185.08C184.898 337.126 184.766 336.966 184.766 336.773L184.76 336.779C184.76 335.385 184.832 334.776 185.075 334.3C186.165 331.656 190.927 321.694 192.774 317.568C192.874 317.324 192.985 317.198 193.25 317.198ZM96.0469 316.102C103.448 316.102 106.872 318.885 106.872 325.218C106.872 332.038 102.231 334.936 95.3223 334.936C93.6637 334.936 92.1444 334.935 90.3975 334.796C90.4335 337.219 90.5049 340.296 90.5049 343.029C90.5049 343.598 89.8626 343.786 87.6943 343.786C87.4182 343.786 87.258 343.626 87.2578 343.383C87.2578 340.833 87.3076 335.063 87.3076 330.152C87.3076 324.792 87.1357 318.214 87.1357 316.771C87.1359 316.544 87.247 316.4 87.5234 316.362C89.7636 316.124 92.767 316.102 96.0469 316.102ZM281.543 316.102C288.944 316.102 292.367 318.885 292.367 325.218C292.367 332.038 287.727 334.936 280.818 334.936C279.16 334.936 277.64 334.935 275.893 334.796C275.929 337.219 276 340.296 276 343.029C276 343.598 275.359 343.786 273.19 343.786C272.914 343.786 272.753 343.626 272.753 343.383C272.753 340.833 272.803 335.063 272.803 330.152C272.803 324.792 272.632 318.214 272.632 316.771C272.632 316.544 272.742 316.4 273.019 316.362C275.259 316.124 278.263 316.102 281.543 316.102ZM136.371 316.218C138.815 316.218 139.424 316.317 139.469 316.837C141.117 330.078 142.599 342.284 142.6 343.172C142.6 343.648 142.129 343.759 140.077 343.759C139.823 343.759 139.645 343.654 139.606 343.366C138.739 335.328 137.872 327.198 137.023 319.113L127.659 343.189C127.515 343.615 127.061 343.703 125.247 343.703C124.91 343.703 124.711 343.598 124.589 343.288L114.831 319.046C114.07 327.184 113.343 336.169 112.725 343.333C112.686 343.643 112.564 343.726 112.227 343.726C110.059 343.726 109.826 343.709 109.826 343.267C109.826 342.492 110.97 331.54 112.48 316.943C112.547 316.434 113.272 316.224 116.065 316.224C116.336 316.224 116.503 316.345 116.597 316.577L126.19 340.084L135.37 316.832C135.536 316.395 135.79 316.218 136.371 316.218ZM321.872 316.218C324.316 316.218 324.925 316.317 324.97 316.837C326.618 330.078 328.1 342.284 328.101 343.172C328.101 343.648 327.63 343.759 325.578 343.759C325.324 343.759 325.146 343.654 325.107 343.366C324.24 335.328 323.373 327.198 322.524 319.113L313.16 343.189C313.016 343.615 312.562 343.703 310.748 343.703C310.411 343.703 310.211 343.598 310.09 343.288L300.332 319.046C299.571 327.184 298.844 336.169 298.226 343.333C298.187 343.643 298.065 343.726 297.728 343.726C295.56 343.726 295.327 343.709 295.327 343.267H295.321C295.321 342.492 296.466 331.54 297.977 316.943C298.043 316.434 298.767 316.224 301.561 316.224C301.832 316.224 301.998 316.345 302.092 316.577L311.686 340.084L320.871 316.832C321.037 316.395 321.291 316.218 321.872 316.218ZM8.62305 316.965C13.8943 316.965 17.1141 319.719 17.1143 324.083C17.1143 328.651 13.8718 331.728 3.45312 340.832C8.55413 340.802 15.3659 340.705 17.9053 340.705C18.1928 340.705 18.3037 340.855 18.3037 341.126C18.3037 342.78 18.1153 343.532 17.5732 343.532H0.375977C0.171463 343.532 0.000131652 343.361 0 343.117C0 341.325 0.0439866 341.009 0.519531 340.622C11.1726 330.893 14.1824 327.801 14.1826 324.294C14.1826 321.418 11.9866 319.459 8.36914 319.459C4.14868 319.459 1.81972 321.135 1.2168 321.135C0.829617 321.135 0.342773 320.007 0.342773 319.26C0.342826 319.055 0.414996 318.868 0.658203 318.74C3.37401 317.463 5.30999 316.965 8.62305 316.965ZM40.7383 319.326C36.496 319.327 33.5752 323.16 33.5752 330.611C33.5752 338.487 36.4021 341.668 40.6943 341.668C45.5453 341.668 47.7802 337.425 47.7803 330.434L47.7861 330.439C47.786 322.568 44.9808 319.326 40.7383 319.326ZM63.5723 319.326C59.3297 319.326 56.4092 323.16 56.4092 330.611C56.4092 338.487 59.236 341.668 63.5283 341.668C68.3792 341.668 70.6142 337.425 70.6143 330.434L70.6191 330.439C70.619 322.568 67.8148 319.326 63.5723 319.326ZM249.067 319.326C244.825 319.327 241.904 323.16 241.904 330.611C241.904 338.487 244.731 341.668 249.023 341.668C253.874 341.668 256.109 337.425 256.109 330.434L256.114 330.439C256.114 322.568 253.31 319.326 249.067 319.326ZM172.275 331.065C172.469 331.065 172.596 331.203 172.596 331.407C172.596 332.69 172.458 333.497 172.132 333.476C169.51 333.448 166.584 333.453 164.012 333.453C161.213 333.453 158.408 333.448 155.626 333.476C155.449 333.498 155.327 333.377 155.327 333.205V333.199C155.327 331.684 155.488 331.065 155.77 331.065C158.513 331.092 161.307 331.125 164.056 331.125C166.805 331.125 169.62 331.098 172.275 331.065ZM95.8809 318.751C93.8527 318.751 91.9003 318.779 90.3936 318.937C90.3654 322.513 90.3763 326.273 90.377 332.164C92.2871 332.309 94.1493 332.325 95.7539 332.325C101.451 332.325 103.891 329.77 103.891 325.113C103.891 320.455 101.246 318.751 95.8809 318.751ZM281.377 318.751C279.349 318.751 277.396 318.779 275.89 318.937C275.861 322.513 275.871 326.273 275.872 332.164C277.782 332.31 279.644 332.325 281.249 332.325C286.946 332.325 289.386 329.77 289.386 325.113C289.386 320.455 286.742 318.751 281.377 318.751ZM24.8193 323.94C26.1413 323.94 26.9824 324.548 26.9824 325.721C26.9824 326.894 26.2022 327.856 25.002 327.856C23.6745 327.856 22.8839 327.17 22.8838 326.086C22.8838 324.725 23.619 323.94 24.8193 323.94ZM210.314 323.94C211.636 323.94 212.478 324.548 212.478 325.721C212.478 326.894 211.697 327.856 210.497 327.856C209.17 327.856 208.379 327.17 208.379 326.086C208.379 324.726 209.114 323.94 210.314 323.94Z" fill="#686868"/>
</svg>
